# xmcd
#
# Track frame offsets:
#  150
#  12435
#  26805
#  44430
#  60942
#  75550
#  122679
#  141402
#  154832
#  177687
#  189645
#  204050
#  218030
#  230517
#  245434
#  259345
#
# Disc length: 3894 seconds
#
# Revision: 0
# Processed by: cddbd v1.5.1PL2 Copyright (c) Steve Scherf et al.
# Submitted via: Collectorz.com_Music_Collector 6.9
#
DISCID=e10f3410
DTITLE=Oscar Benton - All I Ever Need Is You
DYEAR=2004
DGENRE=Blues
TTITLE0=All I Ever Need Is You (With Monica)
TTITLE1=Everybody's Telling Me (With Monica)
TTITLE2=Roll On Sweet Mississippi
TTITLE3=Bensonhurst Blues
TTITLE4=Wooly Booly Boogie
TTITLE5=Draggin Around
TTITLE6=Today Is Yesterday's Tomorrow
TTITLE7=Stop What You're Doing
TTITLE8=Took Me A Long Time
TTITLE9=Come Back
TTITLE10=He's Crazy
TTITLE11=Josie
TTITLE12=Never Never Leave Me
TTITLE13=Rock 'n' Roller
TTITLE14=You And I
TTITLE15=I Don't Know
EXTD=
EXTT0=
EXTT1=
EXTT2=
EXTT3=
EXTT4=
EXTT5=
EXTT6=
EXTT7=
EXTT8=
EXTT9=
EXTT10=
EXTT11=
EXTT12=
EXTT13=
EXTT14=
EXTT15=
PLAYORDER=
